<mxfile host="app.diagrams.net" modified="2021-06-15T16:16:41.185Z" agent="5.0 (Windows NT 10.0; Win64; x64) AppleWebKit/537.36 (KHTML, like Gecko) Chrome/91.0.4472.106 Safari/537.36" etag="Q1z0knlz5f72P8_xmkl-" version="14.7.8" type="github">
  <diagram id="uNabezOZbzhQUUktLZSe" name="Page-1">
    <mxGraphModel dx="1199" dy="611" grid="1" gridSize="10" guides="1" tooltips="1" connect="1" arrows="1" fold="1" page="1" pageScale="1" pageWidth="827" pageHeight="1169" math="0" shadow="0">
      <root>
        <mxCell id="0" />
        <mxCell id="1" parent="0" />
        <mxCell id="d3qm_ClmXxjC8AG7S3Nh-4" style="edgeStyle=orthogonalEdgeStyle;rounded=0;orthogonalLoop=1;jettySize=auto;html=1;exitX=1;exitY=0.5;exitDx=0;exitDy=0;entryX=0.054;entryY=0.396;entryDx=0;entryDy=0;entryPerimeter=0;" parent="1" source="d3qm_ClmXxjC8AG7S3Nh-1" target="d3qm_ClmXxjC8AG7S3Nh-2" edge="1">
          <mxGeometry relative="1" as="geometry" />
        </mxCell>
        <mxCell id="d3qm_ClmXxjC8AG7S3Nh-8" style="edgeStyle=orthogonalEdgeStyle;rounded=0;orthogonalLoop=1;jettySize=auto;html=1;" parent="1" source="d3qm_ClmXxjC8AG7S3Nh-1" target="d3qm_ClmXxjC8AG7S3Nh-9" edge="1">
          <mxGeometry relative="1" as="geometry">
            <mxPoint x="110" y="180" as="targetPoint" />
          </mxGeometry>
        </mxCell>
        <mxCell id="d3qm_ClmXxjC8AG7S3Nh-1" value="Teacher" style="html=1;dashed=0;whitespace=wrap;" parent="1" vertex="1">
          <mxGeometry x="60" y="50" width="100" height="50" as="geometry" />
        </mxCell>
        <mxCell id="d3qm_ClmXxjC8AG7S3Nh-6" style="edgeStyle=orthogonalEdgeStyle;rounded=0;orthogonalLoop=1;jettySize=auto;html=1;entryX=0.5;entryY=0;entryDx=0;entryDy=0;" parent="1" source="d3qm_ClmXxjC8AG7S3Nh-2" target="d3qm_ClmXxjC8AG7S3Nh-3" edge="1">
          <mxGeometry relative="1" as="geometry" />
        </mxCell>
        <mxCell id="d3qm_ClmXxjC8AG7S3Nh-13" style="edgeStyle=orthogonalEdgeStyle;rounded=0;orthogonalLoop=1;jettySize=auto;html=1;" parent="1" source="d3qm_ClmXxjC8AG7S3Nh-2" edge="1">
          <mxGeometry relative="1" as="geometry">
            <mxPoint x="390" y="82.5" as="targetPoint" />
          </mxGeometry>
        </mxCell>
        <mxCell id="d3qm_ClmXxjC8AG7S3Nh-34" style="edgeStyle=orthogonalEdgeStyle;rounded=0;orthogonalLoop=1;jettySize=auto;html=1;exitX=0.5;exitY=0;exitDx=0;exitDy=0;entryX=1;entryY=0.5;entryDx=0;entryDy=0;" parent="1" source="d3qm_ClmXxjC8AG7S3Nh-2" target="d3qm_ClmXxjC8AG7S3Nh-32" edge="1">
          <mxGeometry relative="1" as="geometry">
            <Array as="points">
              <mxPoint x="270" y="25" />
              <mxPoint x="810" y="25" />
              <mxPoint x="810" y="528" />
            </Array>
          </mxGeometry>
        </mxCell>
        <mxCell id="d3qm_ClmXxjC8AG7S3Nh-2" value="3.1&lt;br&gt;Access&lt;br&gt;Dashboard" style="shape=ellipse;html=1;dashed=0;whitespace=wrap;aspect=fixed;perimeter=ellipsePerimeter;" parent="1" vertex="1">
          <mxGeometry x="232.5" y="45" width="75" height="75" as="geometry" />
        </mxCell>
        <mxCell id="d3qm_ClmXxjC8AG7S3Nh-3" value="User" style="html=1;dashed=0;whitespace=wrap;shape=partialRectangle;right=0;left=0;" parent="1" vertex="1">
          <mxGeometry x="220" y="170" width="100" height="30" as="geometry" />
        </mxCell>
        <mxCell id="d3qm_ClmXxjC8AG7S3Nh-5" value="Login" style="text;html=1;align=center;verticalAlign=middle;resizable=0;points=[];autosize=1;strokeColor=none;" parent="1" vertex="1">
          <mxGeometry x="180" y="40" width="40" height="20" as="geometry" />
        </mxCell>
        <mxCell id="d3qm_ClmXxjC8AG7S3Nh-7" value="Get details" style="text;html=1;align=center;verticalAlign=middle;resizable=0;points=[];autosize=1;strokeColor=none;" parent="1" vertex="1">
          <mxGeometry x="270" y="130" width="70" height="20" as="geometry" />
        </mxCell>
        <mxCell id="d3qm_ClmXxjC8AG7S3Nh-11" style="edgeStyle=orthogonalEdgeStyle;rounded=0;orthogonalLoop=1;jettySize=auto;html=1;entryX=0.447;entryY=0.082;entryDx=0;entryDy=0;entryPerimeter=0;" parent="1" source="d3qm_ClmXxjC8AG7S3Nh-9" target="d3qm_ClmXxjC8AG7S3Nh-10" edge="1">
          <mxGeometry relative="1" as="geometry">
            <Array as="points">
              <mxPoint x="110" y="383" />
            </Array>
          </mxGeometry>
        </mxCell>
        <mxCell id="d3qm_ClmXxjC8AG7S3Nh-9" value="2.0&lt;br&gt;View all courses" style="shape=ellipse;html=1;dashed=0;whitespace=wrap;aspect=fixed;perimeter=ellipsePerimeter;" parent="1" vertex="1">
          <mxGeometry x="65" y="150" width="90" height="90" as="geometry" />
        </mxCell>
        <mxCell id="d3qm_ClmXxjC8AG7S3Nh-10" value="Courses" style="html=1;dashed=0;whitespace=wrap;shape=partialRectangle;right=0;left=0;" parent="1" vertex="1">
          <mxGeometry x="210" y="410" width="100" height="30" as="geometry" />
        </mxCell>
        <mxCell id="d3qm_ClmXxjC8AG7S3Nh-12" value="Get all courses" style="text;html=1;align=center;verticalAlign=middle;resizable=0;points=[];autosize=1;strokeColor=none;" parent="1" vertex="1">
          <mxGeometry x="100" y="300" width="100" height="20" as="geometry" />
        </mxCell>
        <mxCell id="d3qm_ClmXxjC8AG7S3Nh-15" style="edgeStyle=orthogonalEdgeStyle;rounded=0;orthogonalLoop=1;jettySize=auto;html=1;exitX=0.5;exitY=1;exitDx=0;exitDy=0;entryX=0.826;entryY=0.082;entryDx=0;entryDy=0;entryPerimeter=0;" parent="1" source="d3qm_ClmXxjC8AG7S3Nh-14" target="d3qm_ClmXxjC8AG7S3Nh-10" edge="1">
          <mxGeometry relative="1" as="geometry">
            <mxPoint x="243" y="380" as="targetPoint" />
          </mxGeometry>
        </mxCell>
        <mxCell id="d3qm_ClmXxjC8AG7S3Nh-16" style="edgeStyle=orthogonalEdgeStyle;rounded=0;orthogonalLoop=1;jettySize=auto;html=1;exitX=1;exitY=0.5;exitDx=0;exitDy=0;" parent="1" source="d3qm_ClmXxjC8AG7S3Nh-14" target="d3qm_ClmXxjC8AG7S3Nh-17" edge="1">
          <mxGeometry relative="1" as="geometry">
            <mxPoint x="530" y="90" as="targetPoint" />
          </mxGeometry>
        </mxCell>
        <mxCell id="d3qm_ClmXxjC8AG7S3Nh-20" style="edgeStyle=orthogonalEdgeStyle;rounded=0;orthogonalLoop=1;jettySize=auto;html=1;exitX=0.5;exitY=0;exitDx=0;exitDy=0;" parent="1" source="d3qm_ClmXxjC8AG7S3Nh-14" target="d3qm_ClmXxjC8AG7S3Nh-21" edge="1">
          <mxGeometry relative="1" as="geometry">
            <mxPoint x="720" y="70" as="targetPoint" />
            <Array as="points">
              <mxPoint x="430" y="40" />
              <mxPoint x="640" y="40" />
              <mxPoint x="640" y="95" />
            </Array>
          </mxGeometry>
        </mxCell>
        <mxCell id="d3qm_ClmXxjC8AG7S3Nh-14" value="1.1&lt;br&gt;Create course" style="shape=ellipse;html=1;dashed=0;whitespace=wrap;aspect=fixed;perimeter=ellipsePerimeter;" parent="1" vertex="1">
          <mxGeometry x="390" y="50" width="80" height="80" as="geometry" />
        </mxCell>
        <mxCell id="d3qm_ClmXxjC8AG7S3Nh-18" style="edgeStyle=orthogonalEdgeStyle;rounded=0;orthogonalLoop=1;jettySize=auto;html=1;" parent="1" source="d3qm_ClmXxjC8AG7S3Nh-17" target="d3qm_ClmXxjC8AG7S3Nh-19" edge="1">
          <mxGeometry relative="1" as="geometry">
            <mxPoint x="562.5" y="220" as="targetPoint" />
          </mxGeometry>
        </mxCell>
        <mxCell id="d3qm_ClmXxjC8AG7S3Nh-23" style="edgeStyle=orthogonalEdgeStyle;rounded=0;orthogonalLoop=1;jettySize=auto;html=1;" parent="1" source="d3qm_ClmXxjC8AG7S3Nh-17" edge="1">
          <mxGeometry relative="1" as="geometry">
            <mxPoint x="270" y="410" as="targetPoint" />
            <Array as="points">
              <mxPoint x="540" y="230" />
              <mxPoint x="270" y="230" />
              <mxPoint x="270" y="407" />
            </Array>
          </mxGeometry>
        </mxCell>
        <mxCell id="d3qm_ClmXxjC8AG7S3Nh-17" value="1.2&lt;br&gt;Modify course" style="shape=ellipse;html=1;dashed=0;whitespace=wrap;aspect=fixed;perimeter=ellipsePerimeter;" parent="1" vertex="1">
          <mxGeometry x="530" y="75" width="95" height="95" as="geometry" />
        </mxCell>
        <mxCell id="d3qm_ClmXxjC8AG7S3Nh-26" style="edgeStyle=orthogonalEdgeStyle;rounded=0;orthogonalLoop=1;jettySize=auto;html=1;entryX=1;entryY=0;entryDx=0;entryDy=0;" parent="1" source="d3qm_ClmXxjC8AG7S3Nh-19" target="d3qm_ClmXxjC8AG7S3Nh-10" edge="1">
          <mxGeometry relative="1" as="geometry" />
        </mxCell>
        <mxCell id="d3qm_ClmXxjC8AG7S3Nh-19" value="1.4&lt;br&gt;Recommend&amp;nbsp;&lt;br&gt;web&amp;nbsp;&lt;br&gt;resources&lt;br&gt;shown" style="shape=ellipse;html=1;dashed=0;whitespace=wrap;aspect=fixed;perimeter=ellipsePerimeter;" parent="1" vertex="1">
          <mxGeometry x="512.5" y="240" width="100" height="100" as="geometry" />
        </mxCell>
        <mxCell id="d3qm_ClmXxjC8AG7S3Nh-22" style="edgeStyle=orthogonalEdgeStyle;rounded=0;orthogonalLoop=1;jettySize=auto;html=1;exitX=0.5;exitY=1;exitDx=0;exitDy=0;entryX=0.934;entryY=0.28;entryDx=0;entryDy=0;entryPerimeter=0;" parent="1" source="d3qm_ClmXxjC8AG7S3Nh-21" target="d3qm_ClmXxjC8AG7S3Nh-19" edge="1">
          <mxGeometry relative="1" as="geometry" />
        </mxCell>
        <mxCell id="d3qm_ClmXxjC8AG7S3Nh-21" value="1.3&lt;br&gt;Get web&lt;br&gt;resources&lt;br&gt;from keywords" style="shape=ellipse;html=1;dashed=0;whitespace=wrap;aspect=fixed;perimeter=ellipsePerimeter;" parent="1" vertex="1">
          <mxGeometry x="690" y="40" width="110" height="110" as="geometry" />
        </mxCell>
        <mxCell id="d3qm_ClmXxjC8AG7S3Nh-24" value="Update or delete course" style="text;html=1;align=center;verticalAlign=middle;resizable=0;points=[];autosize=1;strokeColor=none;" parent="1" vertex="1">
          <mxGeometry x="280" y="210" width="140" height="20" as="geometry" />
        </mxCell>
        <mxCell id="d3qm_ClmXxjC8AG7S3Nh-25" value="New course" style="text;html=1;align=center;verticalAlign=middle;resizable=0;points=[];autosize=1;strokeColor=none;" parent="1" vertex="1">
          <mxGeometry x="310" y="250" width="80" height="20" as="geometry" />
        </mxCell>
        <mxCell id="d3qm_ClmXxjC8AG7S3Nh-27" value="Web content added" style="text;html=1;align=center;verticalAlign=middle;resizable=0;points=[];autosize=1;strokeColor=none;" parent="1" vertex="1">
          <mxGeometry x="370" y="290" width="120" height="20" as="geometry" />
        </mxCell>
        <mxCell id="d3qm_ClmXxjC8AG7S3Nh-29" style="edgeStyle=orthogonalEdgeStyle;rounded=0;orthogonalLoop=1;jettySize=auto;html=1;entryX=0;entryY=0.656;entryDx=0;entryDy=0;entryPerimeter=0;" parent="1" source="d3qm_ClmXxjC8AG7S3Nh-28" target="d3qm_ClmXxjC8AG7S3Nh-30" edge="1">
          <mxGeometry relative="1" as="geometry">
            <mxPoint x="270" y="655" as="targetPoint" />
          </mxGeometry>
        </mxCell>
        <mxCell id="d3qm_ClmXxjC8AG7S3Nh-31" style="edgeStyle=orthogonalEdgeStyle;rounded=0;orthogonalLoop=1;jettySize=auto;html=1;exitX=0.5;exitY=0;exitDx=0;exitDy=0;entryX=0;entryY=1;entryDx=0;entryDy=0;" parent="1" source="d3qm_ClmXxjC8AG7S3Nh-28" target="d3qm_ClmXxjC8AG7S3Nh-9" edge="1">
          <mxGeometry relative="1" as="geometry">
            <mxPoint x="69" y="240" as="targetPoint" />
            <Array as="points">
              <mxPoint x="160" y="440" />
              <mxPoint x="78" y="440" />
            </Array>
          </mxGeometry>
        </mxCell>
        <mxCell id="d3qm_ClmXxjC8AG7S3Nh-28" value="Student" style="html=1;dashed=0;whitespace=wrap;" parent="1" vertex="1">
          <mxGeometry x="110" y="520" width="100" height="50" as="geometry" />
        </mxCell>
        <mxCell id="d3qm_ClmXxjC8AG7S3Nh-33" style="edgeStyle=orthogonalEdgeStyle;rounded=0;orthogonalLoop=1;jettySize=auto;html=1;exitX=1;exitY=0.5;exitDx=0;exitDy=0;entryX=0.453;entryY=0.933;entryDx=0;entryDy=0;entryPerimeter=0;" parent="1" source="d3qm_ClmXxjC8AG7S3Nh-30" target="d3qm_ClmXxjC8AG7S3Nh-32" edge="1">
          <mxGeometry relative="1" as="geometry">
            <mxPoint x="390" y="570" as="targetPoint" />
          </mxGeometry>
        </mxCell>
        <mxCell id="d3qm_ClmXxjC8AG7S3Nh-30" value="3.1&lt;br&gt;Access&lt;br&gt;Dashboard" style="shape=ellipse;html=1;dashed=0;whitespace=wrap;aspect=fixed;perimeter=ellipsePerimeter;" parent="1" vertex="1">
          <mxGeometry x="280" y="540" width="90" height="90" as="geometry" />
        </mxCell>
        <mxCell id="d3qm_ClmXxjC8AG7S3Nh-32" value="3.2&lt;br&gt;Learn&lt;br&gt;&amp;nbsp;any&lt;br&gt;&amp;nbsp;course" style="shape=ellipse;html=1;dashed=0;whitespace=wrap;aspect=fixed;perimeter=ellipsePerimeter;" parent="1" vertex="1">
          <mxGeometry x="420" y="430" width="75" height="75" as="geometry" />
        </mxCell>
        <mxCell id="d3qm_ClmXxjC8AG7S3Nh-35" value="Login" style="text;html=1;align=center;verticalAlign=middle;resizable=0;points=[];autosize=1;strokeColor=none;" parent="1" vertex="1">
          <mxGeometry x="192.5" y="575" width="40" height="20" as="geometry" />
        </mxCell>
        <mxCell id="VpwQy626Z5NcKNcMiy0Q-3" value="Manage Courses" style="text;html=1;align=center;verticalAlign=middle;resizable=0;points=[];autosize=1;strokeColor=none;" vertex="1" parent="1">
          <mxGeometry x="295" y="55" width="110" height="20" as="geometry" />
        </mxCell>
      </root>
    </mxGraphModel>
  </diagram>
</mxfile>
